<svg width="70" height="70" viewBox="0 0 70 70" fill="none" xmlns="http://www.w3.org/2000/svg">
<path d="M18.6215 55.4166C15.0766 55.4166 12.0589 54.1663 9.5686 51.6656C7.07821 49.165 5.83301 46.1338 5.83301 42.572C5.83301 39.1543 7.04547 36.1862 9.47038 33.6678C11.8953 31.1494 14.7419 29.8415 18.0101 29.7443C18.5336 25.4029 20.4163 21.7936 23.6583 18.9162C26.9003 16.0388 30.7107 14.6001 35.0894 14.6001C39.8821 14.6001 43.911 16.298 47.176 19.6938C50.4409 23.0897 52.0734 27.1895 52.0734 31.9935V35.7627H53.8682C56.7326 35.6281 59.165 36.5059 61.1655 38.3962C63.1661 40.2864 64.1663 42.6748 64.1663 45.5616C64.1663 48.2801 63.2222 50.6022 61.3338 52.528C59.4455 54.4537 57.1421 55.4166 54.4236 55.4166H37.9163C36.7955 55.4166 35.8422 55.0237 35.0565 54.238C34.2707 53.4523 33.8778 52.499 33.8778 51.3782V32.6778L27.0966 39.5151L25.4756 37.9503L34.9997 28.4262L44.5238 37.9503L42.9027 39.5151L36.1215 32.6778V51.3782C36.1215 51.8269 36.3085 52.2382 36.6824 52.6121C37.0563 52.9861 37.4676 53.173 37.9163 53.173H54.3114C56.4241 53.173 58.2208 52.4296 59.7016 50.9428C61.1824 49.456 61.9228 47.6686 61.9228 45.5806C61.9228 43.4926 61.1824 41.7083 59.7016 40.2275C58.2208 38.7467 56.4175 38.0063 54.2916 38.0063H49.8298V31.9935C49.8298 27.8533 48.3874 24.2933 45.5024 21.3135C42.6176 18.3336 39.0961 16.8437 34.938 16.8437C30.7798 16.8437 27.2462 18.3336 24.337 21.3135C21.4278 24.2933 19.9732 27.8533 19.9732 31.9935H18.4195C15.63 31.9935 13.2088 33.0227 11.1559 35.0812C9.10303 37.1398 8.07658 39.6589 8.07658 42.6385C8.07658 45.521 9.10597 47.9973 11.1647 50.0676C13.2235 52.1379 15.7091 53.173 18.6215 53.173H27.2593V55.4166H18.6215Z" fill="#B760FF"/>
</svg>
