<svg width="41" height="41" viewBox="0 0 41 41" fill="none" xmlns="http://www.w3.org/2000/svg">
<g clip-path="url(#clip0_1729_226)">
<path fill-rule="evenodd" clip-rule="evenodd" d="M20.6113 40.0461C31.657 40.0461 40.6113 31.0918 40.6113 20.0461C40.6113 9.00045 31.657 0.0461426 20.6113 0.0461426C9.56563 0.0461426 0.611328 9.00045 0.611328 20.0461C0.611328 31.0918 9.56563 40.0461 20.6113 40.0461Z" fill="#424B5A"/>
<mask id="mask0_1729_226" style="mask-type:luminance" maskUnits="userSpaceOnUse" x="0" y="0" width="41" height="41">
<path fill-rule="evenodd" clip-rule="evenodd" d="M20.6113 40.0461C31.657 40.0461 40.6113 31.0918 40.6113 20.0461C40.6113 9.00045 31.657 0.0461426 20.6113 0.0461426C9.56563 0.0461426 0.611328 9.00045 0.611328 20.0461C0.611328 31.0918 9.56563 40.0461 20.6113 40.0461Z" fill="white"/>
</mask>
<g mask="url(#mask0_1729_226)">
<rect x="0.611328" y="0.0461426" width="40" height="40" fill="#321B59"/>
<path d="M25.0598 18.3151C25.0598 18.8471 24.9548 19.3581 24.7448 19.8481C24.5348 20.3381 24.2618 20.8141 23.9258 21.2761C23.5898 21.7241 23.2117 22.1581 22.7917 22.5781C22.3717 22.9981 21.9588 23.3971 21.5528 23.7751C21.3428 23.9711 21.1117 24.1951 20.8597 24.4471C20.6217 24.6851 20.3907 24.9301 20.1667 25.1821C19.9427 25.4341 19.7397 25.6721 19.5577 25.8961C19.3898 26.1061 19.2848 26.2811 19.2427 26.4211H25.5008V29.0461H15.7987C15.7707 28.8921 15.7567 28.6961 15.7567 28.4581C15.7567 28.2201 15.7567 28.0521 15.7567 27.9541C15.7567 27.2821 15.8617 26.6661 16.0717 26.1061C16.2957 25.5461 16.5827 25.0281 16.9327 24.5521C17.2827 24.0621 17.6747 23.6071 18.1087 23.1871C18.5567 22.7671 18.9977 22.3471 19.4318 21.9271C19.7677 21.6051 20.0827 21.3041 20.3767 21.0241C20.6707 20.7301 20.9297 20.4501 21.1537 20.1841C21.3777 19.9041 21.5527 19.6311 21.6787 19.3651C21.8047 19.0851 21.8677 18.8051 21.8677 18.5251C21.8677 17.9091 21.6927 17.4751 21.3427 17.2231C20.9927 16.9711 20.5587 16.8451 20.0407 16.8451C19.6627 16.8451 19.3057 16.9081 18.9698 17.0341C18.6478 17.1461 18.3467 17.2861 18.0667 17.4541C17.8007 17.6081 17.5697 17.7691 17.3737 17.9371C17.1777 18.0911 17.0307 18.2171 16.9327 18.3151L15.3787 16.1311C15.9947 15.5571 16.7087 15.0881 17.5207 14.7241C18.3467 14.3461 19.2287 14.1571 20.1667 14.1571C21.0207 14.1571 21.7557 14.2551 22.3718 14.4511C22.9878 14.6471 23.4918 14.9271 23.8838 15.2911C24.2898 15.6411 24.5838 16.0751 24.7658 16.5931C24.9618 17.0971 25.0598 17.6711 25.0598 18.3151Z" fill="white"/>
</g>
</g>
<defs>
<clipPath id="clip0_1729_226">
<rect width="40" height="40" fill="white" transform="translate(0.611328 0.0461426)"/>
</clipPath>
</defs>
</svg>
