<svg width="41" height="41" viewBox="0 0 41 41" fill="none" xmlns="http://www.w3.org/2000/svg">
<g clip-path="url(#clip0_1729_244)">
<path fill-rule="evenodd" clip-rule="evenodd" d="M20.918 40.0461C31.9637 40.0461 40.918 31.0918 40.918 20.0461C40.918 9.00045 31.9637 0.0461426 20.918 0.0461426C9.87227 0.0461426 0.917969 9.00045 0.917969 20.0461C0.917969 31.0918 9.87227 40.0461 20.918 40.0461Z" fill="#424B5A"/>
<mask id="mask0_1729_244" style="mask-type:luminance" maskUnits="userSpaceOnUse" x="0" y="0" width="41" height="41">
<path fill-rule="evenodd" clip-rule="evenodd" d="M20.918 40.0461C31.9637 40.0461 40.918 31.0918 40.918 20.0461C40.918 9.00045 31.9637 0.0461426 20.918 0.0461426C9.87227 0.0461426 0.917969 9.00045 0.917969 20.0461C0.917969 31.0918 9.87227 40.0461 20.918 40.0461Z" fill="white"/>
</mask>
<g mask="url(#mask0_1729_244)">
<rect x="0.917969" y="0.0461426" width="40" height="40" fill="#321B59"/>
<path d="M21.6494 18.3151C21.1034 19.0291 20.5224 19.8061 19.9064 20.6461C19.2904 21.4861 18.7724 22.3471 18.3524 23.2291H21.6494V18.3151ZM24.7154 14.4931V23.2291H26.2694V25.7911H24.7154V29.0461H21.6494V25.7911H15.3704V23.5021C15.6784 22.8861 16.0634 22.1931 16.5254 21.4231C16.9874 20.6391 17.4984 19.8411 18.0584 19.0291C18.6324 18.2031 19.2344 17.3981 19.8644 16.6141C20.4944 15.8301 21.1244 15.1231 21.7544 14.4931H24.7154Z" fill="white"/>
</g>
</g>
<defs>
<clipPath id="clip0_1729_244">
<rect width="40" height="40" fill="white" transform="translate(0.917969 0.0461426)"/>
</clipPath>
</defs>
</svg>
