<svg width="41" height="41" viewBox="0 0 41 41" fill="none" xmlns="http://www.w3.org/2000/svg">
<g clip-path="url(#clip0_1729_250)">
<path fill-rule="evenodd" clip-rule="evenodd" d="M20.7471 40.0461C31.7928 40.0461 40.7471 31.0918 40.7471 20.0461C40.7471 9.00045 31.7928 0.0461426 20.7471 0.0461426C9.70138 0.0461426 0.74707 9.00045 0.74707 20.0461C0.74707 31.0918 9.70138 40.0461 20.7471 40.0461Z" fill="#424B5A"/>
<mask id="mask0_1729_250" style="mask-type:luminance" maskUnits="userSpaceOnUse" x="0" y="0" width="41" height="41">
<path fill-rule="evenodd" clip-rule="evenodd" d="M20.7471 40.0461C31.7928 40.0461 40.7471 31.0918 40.7471 20.0461C40.7471 9.00045 31.7928 0.0461426 20.7471 0.0461426C9.70138 0.0461426 0.74707 9.00045 0.74707 20.0461C0.74707 31.0918 9.70138 40.0461 20.7471 40.0461Z" fill="white"/>
</mask>
<g mask="url(#mask0_1729_250)">
<rect x="0.74707" y="0.0461426" width="40" height="40" fill="#321B59"/>
<path d="M16.2495 17.5171C16.6555 17.3491 17.0755 17.1601 17.5095 16.9501C17.9575 16.7261 18.3915 16.4881 18.8115 16.2361C19.2315 15.9701 19.6305 15.6971 20.0085 15.4171C20.4005 15.1231 20.7505 14.8151 21.0585 14.4931H23.2425V29.0461H20.1135V18.5671C19.6935 18.8471 19.2245 19.1061 18.7065 19.3441C18.1885 19.5681 17.6845 19.7641 17.1945 19.9321L16.2495 17.5171Z" fill="white"/>
</g>
</g>
<defs>
<clipPath id="clip0_1729_250">
<rect width="40" height="40" fill="white" transform="translate(0.74707 0.0461426)"/>
</clipPath>
</defs>
</svg>
