<svg width="41" height="41" viewBox="0 0 41 41" fill="none" xmlns="http://www.w3.org/2000/svg">
<g clip-path="url(#clip0_1729_238)">
<path fill-rule="evenodd" clip-rule="evenodd" d="M20.0537 40.0461C31.0994 40.0461 40.0537 31.0918 40.0537 20.0461C40.0537 9.00045 31.0994 0.0461426 20.0537 0.0461426C9.00802 0.0461426 0.0537109 9.00045 0.0537109 20.0461C0.0537109 31.0918 9.00802 40.0461 20.0537 40.0461Z" fill="#424B5A"/>
<mask id="mask0_1729_238" style="mask-type:luminance" maskUnits="userSpaceOnUse" x="0" y="0" width="41" height="41">
<path fill-rule="evenodd" clip-rule="evenodd" d="M20.0537 40.0461C31.0994 40.0461 40.0537 31.0918 40.0537 20.0461C40.0537 9.00045 31.0994 0.0461426 20.0537 0.0461426C9.00802 0.0461426 0.0537109 9.00045 0.0537109 20.0461C0.0537109 31.0918 9.00802 40.0461 20.0537 40.0461Z" fill="white"/>
</mask>
<g mask="url(#mask0_1729_238)">
<rect x="0.0537109" y="0.0461426" width="40" height="40" fill="#321B59"/>
<path d="M18.8741 29.3611C18.4961 29.3611 18.0971 29.3331 17.6771 29.2771C17.2571 29.2351 16.8511 29.1721 16.4591 29.0881C16.0671 29.0041 15.7101 28.9131 15.3881 28.8151C15.0661 28.7171 14.8141 28.6261 14.6321 28.5421L15.2411 25.9381C15.6051 26.0921 16.0671 26.2601 16.6271 26.4421C17.2011 26.6101 17.9081 26.6941 18.7481 26.6941C19.7141 26.6941 20.4211 26.5121 20.8691 26.1481C21.3171 25.7841 21.5411 25.2941 21.5411 24.6781C21.5411 24.3001 21.4571 23.9851 21.2891 23.7331C21.1351 23.4671 20.9181 23.2571 20.6381 23.1031C20.3581 22.9351 20.0221 22.8231 19.6301 22.7671C19.2521 22.6971 18.8461 22.6621 18.4121 22.6621H17.1941V20.1421H18.5801C18.8881 20.1421 19.1821 20.1141 19.4621 20.0581C19.7561 20.0021 20.0151 19.9111 20.2391 19.7851C20.4631 19.6451 20.6381 19.4631 20.7641 19.2391C20.9041 19.0011 20.9741 18.7071 20.9741 18.3571C20.9741 18.0911 20.9181 17.8601 20.8061 17.6641C20.6941 17.4681 20.5471 17.3071 20.3651 17.1811C20.1971 17.0551 19.9941 16.9641 19.7561 16.9081C19.5321 16.8381 19.3011 16.8031 19.0631 16.8031C18.4611 16.8031 17.9011 16.8941 17.3831 17.0761C16.8791 17.2581 16.4171 17.4821 15.9971 17.7481L14.8841 15.4591C15.1081 15.3191 15.3671 15.1721 15.6611 15.0181C15.9691 14.8641 16.3051 14.7241 16.6691 14.5981C17.0331 14.4721 17.4181 14.3671 17.8241 14.2831C18.2441 14.1991 18.6851 14.1571 19.1471 14.1571C20.0011 14.1571 20.7361 14.2621 21.3521 14.4721C21.9821 14.6681 22.5001 14.9551 22.9061 15.3331C23.3121 15.6971 23.6131 16.1311 23.8091 16.6351C24.0051 17.1251 24.1031 17.6641 24.1031 18.2521C24.1031 18.8261 23.9421 19.3861 23.6201 19.9321C23.2981 20.4641 22.8641 20.8701 22.3181 21.1501C23.0741 21.4581 23.6551 21.9201 24.0611 22.5361C24.4811 23.1381 24.6911 23.8661 24.6911 24.7201C24.6911 25.3921 24.5791 26.0151 24.3551 26.5891C24.1311 27.1491 23.7811 27.6391 23.3051 28.0591C22.8291 28.4651 22.2201 28.7871 21.4781 29.0251C20.7501 29.2491 19.8821 29.3611 18.8741 29.3611Z" fill="white"/>
</g>
</g>
<defs>
<clipPath id="clip0_1729_238">
<rect width="40" height="40" fill="white" transform="translate(0.0537109 0.0461426)"/>
</clipPath>
</defs>
</svg>
