<svg width="45" height="91" viewBox="0 0 45 91" fill="none" xmlns="http://www.w3.org/2000/svg">
<path d="M1.06399 75.8186C0.402431 75.3506 -9.2835e-09 74.5257 0 73.6378L1.39351e-07 60.3099C1.60384e-07 58.2982 1.93714 57.0687 3.43601 58.1291L21.314 70.777C22.0405 71.2909 22.9595 71.2909 23.686 70.777L41.564 58.1291C43.0629 57.0687 45 58.2982 45 60.3098V73.6378C45 74.5257 44.5976 75.3506 43.936 75.8186L23.686 90.1445C22.9595 90.6585 22.0405 90.6585 21.314 90.1445L1.06399 75.8186Z" fill="white" fill-opacity="0.53"/>
<path d="M1.06399 46.9488C0.402431 46.4808 2.92565e-07 45.656 3.01848e-07 44.7681L4.41199e-07 31.4401C4.62233e-07 29.4284 1.93714 28.1989 3.43601 29.2593L21.314 41.9072C22.0405 42.4211 22.9595 42.4211 23.686 41.9072L41.564 29.2593C43.0629 28.1989 45 29.4284 45 31.4401V44.7681C45 45.656 44.5976 46.4808 43.936 46.9488L23.686 61.2747C22.9595 61.7887 22.0405 61.7887 21.314 61.2747L1.06399 46.9488Z" fill="white" fill-opacity="0.53"/>
<path d="M1.064 18.079C0.402432 17.611 5.94413e-07 16.7862 6.03697e-07 15.8983L7.43048e-07 2.57028C7.64081e-07 0.558612 1.93714 -0.670846 3.43601 0.389534L21.314 13.0374C22.0405 13.5513 22.9595 13.5513 23.686 13.0374L41.564 0.389535C43.0629 -0.670846 45 0.558608 45 2.57028V15.8983C45 16.7862 44.5976 17.611 43.936 18.079L23.686 32.405C22.9595 32.9189 22.0405 32.9189 21.314 32.405L1.064 18.079Z" fill="white" fill-opacity="0.53"/>
</svg>
