<svg width="46" height="91" viewBox="0 0 46 91" fill="none" xmlns="http://www.w3.org/2000/svg">
<path d="M44.2632 75.8186C44.9247 75.3506 45.3271 74.5257 45.3271 73.6378L45.3271 60.3099C45.3271 58.2982 43.39 57.0687 41.8911 58.1291L24.0132 70.777C23.2867 71.2909 22.3676 71.2909 21.6411 70.777L3.76315 58.1291C2.26429 57.0687 0.327152 58.2982 0.327152 60.3098V73.6378C0.327152 74.5257 0.72958 75.3506 1.39115 75.8186L21.6411 90.1445C22.3676 90.6585 23.2867 90.6585 24.0132 90.1445L44.2632 75.8186Z" fill="white" fill-opacity="0.53"/>
<path d="M44.2632 46.9488C44.9247 46.4808 45.3271 45.656 45.3271 44.7681L45.3271 31.4401C45.3271 29.4284 43.39 28.1989 41.8911 29.2593L24.0132 41.9072C23.2867 42.4211 22.3676 42.4211 21.6411 41.9072L3.76315 29.2593C2.26429 28.1989 0.327152 29.4284 0.327152 31.4401V44.7681C0.327152 45.656 0.72958 46.4808 1.39115 46.9488L21.6411 61.2747C22.3676 61.7887 23.2867 61.7887 24.0132 61.2747L44.2632 46.9488Z" fill="white" fill-opacity="0.53"/>
<path d="M44.2632 18.079C44.9247 17.611 45.3271 16.7862 45.3271 15.8983L45.3271 2.57028C45.3271 0.558612 43.39 -0.670846 41.8911 0.389534L24.0132 13.0374C23.2867 13.5513 22.3676 13.5513 21.6411 13.0374L3.76315 0.389535C2.26429 -0.670846 0.327152 0.558608 0.327152 2.57028V15.8983C0.327152 16.7862 0.72958 17.611 1.39115 18.079L21.6411 32.405C22.3676 32.9189 23.2867 32.9189 24.0132 32.405L44.2632 18.079Z" fill="white" fill-opacity="0.53"/>
</svg>
