<svg width="313" height="385" viewBox="0 0 313 385" fill="none" xmlns="http://www.w3.org/2000/svg">
<path d="M3.36869 376.112C1.93209 373.966 0.899768 371.527 0.380683 368.903L0.871176 368.806C0.627721 367.576 0.5 366.303 0.5 365V359.927H0V349.779H0.5V339.632H0V329.485H0.5V319.338H0V309.191H0.5V299.044H0V288.897H0.5V278.75H0V268.603H0.5V258.456H0V248.309H0.5V238.162H0V228.015H0.5V217.868H0V207.721H0.5V197.574H0V187.426H0.5V177.279H0V167.132H0.5V156.985H0V146.838H0.5V136.691H0V126.544H0.5V116.397H0V106.25H0.5V96.1029H0V85.9559H0.5V75.8088H0V65.6618H0.5V55.5147H0V45.3676H0.5V35.2206H0V25.0735H0.5V20C0.5 18.6971 0.627721 17.4244 0.871175 16.1938L0.380681 16.0968C0.899766 13.4729 1.93209 11.0335 3.36869 8.88769L3.78418 9.16585C5.20798 7.03913 7.03913 5.20798 9.16585 3.78418L8.88769 3.36869C11.0335 1.93209 13.4729 0.899767 16.0968 0.380681L16.1938 0.871175C17.4244 0.627721 18.697 0.5 20 0.5H24.875V0H34.625V0.5H44.375V0H54.125V0.5H63.875V0H73.625V0.5H83.375V0H93.125V0.5H102.875V0H112.625V0.5H122.375V0H132.125V0.5H141.875V0H151.625V0.5H161.375V0H171.125V0.5H180.875V0H190.625V0.5H200.375V0H210.125V0.5H219.875V0H229.625V0.5H239.375V0H249.125V0.5H258.875V0H268.625V0.5H278.375V0H288.125V0.5H293C294.303 0.5 295.576 0.627721 296.806 0.871175L296.903 0.380682C299.527 0.899769 301.966 1.9321 304.112 3.3687L303.834 3.78418C305.961 5.20798 307.792 7.03913 309.216 9.16585L309.631 8.88768C311.068 11.0335 312.1 13.4729 312.619 16.0968L312.129 16.1938C312.372 17.4244 312.5 18.697 312.5 20V25.0734H313V35.2205H312.5V45.3675H313V55.5146H312.5V65.6617H313V75.8087H312.5V85.9558H313V96.1029H312.5V106.25H313V116.397H312.5V126.544H313V136.691H312.5V146.838H313V156.985H312.5V167.132H313V177.279H312.5V187.426H313V197.574H312.5V207.721H313V217.868H312.5V228.015H313V238.162H312.5V248.309H313V258.456H312.5V268.603H313V278.75H312.5V288.897H313V299.044H312.5V309.191H313V319.338H312.5V329.485H313V339.632H312.5V349.779H313V359.926H312.5V365C312.5 366.303 312.372 367.576 312.129 368.806L312.619 368.903C312.1 371.527 311.068 373.966 309.631 376.112L309.216 375.834C307.792 377.961 305.961 379.792 303.834 381.216L304.112 381.631C301.966 383.068 299.527 384.1 296.903 384.619L296.806 384.129C295.576 384.372 294.303 384.5 293 384.5H288.125V385H278.375V384.5H268.625V385H258.875V384.5H249.125V385H239.375V384.5H229.625V385H219.875V384.5H210.125V385H200.375V384.5H190.625V385H180.875V384.5H171.125V385H161.375V384.5H151.625V385H141.875V384.5H132.125V385H122.375V384.5H112.625V385H102.875V384.5H93.125V385H83.375V384.5H73.625V385H63.875V384.5H54.125V385H44.375V384.5H34.625V385H24.875V384.5H20C18.6971 384.5 17.4244 384.372 16.1938 384.129L16.0968 384.619C13.4729 384.1 11.0335 383.068 8.88769 381.631L9.16585 381.216C7.03913 379.792 5.20798 377.961 3.78418 375.834L3.36869 376.112Z" fill="#FAF8FF" stroke="#C2D1D9" stroke-dasharray="10 10"/>
</svg>
