<svg width="32" height="32" viewBox="0 0 32 32" fill="none" xmlns="http://www.w3.org/2000/svg">
<path d="M11.5333 30L8.99992 25.6667L3.96659 24.6333L4.53325 19.7333L1.33325 16L4.53325 12.3L3.96659 7.4L8.99992 6.36667L11.5333 2L15.9999 4.06667L20.4666 2L23.0333 6.36667L28.0333 7.4L27.4666 12.3L30.6666 16L27.4666 19.7333L28.0333 24.6333L23.0333 25.6667L20.4666 30L15.9999 27.9333L11.5333 30ZM12.4333 27.3667L15.9999 25.8667L19.6666 27.3667L21.8999 24.0333L25.7999 23.0333L25.3999 19.0667L28.0999 16L25.3999 12.8667L25.7999 8.9L21.8999 7.96667L19.5999 4.63333L15.9999 6.13333L12.3333 4.63333L10.0999 7.96667L6.19992 8.9L6.59992 12.8667L3.89992 16L6.59992 19.0667L6.19992 23.1L10.0999 24.0333L12.4333 27.3667ZM14.5666 20.4333L22.1333 12.9333L20.6333 11.5667L14.5666 17.5667L11.3999 14.2667L9.86659 15.7667L14.5666 20.4333Z" fill="white"/>
</svg>
