<svg width="235" height="42" viewBox="0 0 235 42" fill="none" xmlns="http://www.w3.org/2000/svg">
<rect width="235" height="42" rx="5" fill="#203E70"/>
<path d="M37.988 13.454V21.392C37.988 22.508 38.258 23.336 38.798 23.876C39.35 24.416 40.112 24.686 41.084 24.686C42.044 24.686 42.794 24.416 43.334 23.876C43.886 23.336 44.162 22.508 44.162 21.392V13.454H45.8V21.374C45.8 22.418 45.59 23.3 45.17 24.02C44.75 24.728 44.18 25.256 43.46 25.604C42.752 25.952 41.954 26.126 41.066 26.126C40.178 26.126 39.374 25.952 38.654 25.604C37.946 25.256 37.382 24.728 36.962 24.02C36.554 23.3 36.35 22.418 36.35 21.374V13.454H37.988ZM50.1705 17.954C50.4945 17.39 50.9745 16.922 51.6105 16.55C52.2585 16.166 53.0085 15.974 53.8605 15.974C54.7365 15.974 55.5285 16.184 56.2365 16.604C56.9565 17.024 57.5205 17.618 57.9285 18.386C58.3365 19.142 58.5405 20.024 58.5405 21.032C58.5405 22.028 58.3365 22.916 57.9285 23.696C57.5205 24.476 56.9565 25.082 56.2365 25.514C55.5285 25.946 54.7365 26.162 53.8605 26.162C53.0205 26.162 52.2765 25.976 51.6285 25.604C50.9925 25.22 50.5065 24.746 50.1705 24.182V30.68H48.5325V16.136H50.1705V17.954ZM56.8665 21.032C56.8665 20.288 56.7165 19.64 56.4165 19.088C56.1165 18.536 55.7085 18.116 55.1925 17.828C54.6885 17.54 54.1305 17.396 53.5185 17.396C52.9185 17.396 52.3605 17.546 51.8445 17.846C51.3405 18.134 50.9325 18.56 50.6205 19.124C50.3205 19.676 50.1705 20.318 50.1705 21.05C50.1705 21.794 50.3205 22.448 50.6205 23.012C50.9325 23.564 51.3405 23.99 51.8445 24.29C52.3605 24.578 52.9185 24.722 53.5185 24.722C54.1305 24.722 54.6885 24.578 55.1925 24.29C55.7085 23.99 56.1165 23.564 56.4165 23.012C56.7165 22.448 56.8665 21.788 56.8665 21.032ZM62.3345 12.68V26H60.6965V12.68H62.3345ZM69.4282 26.162C68.5042 26.162 67.6642 25.952 66.9082 25.532C66.1642 25.112 65.5762 24.518 65.1442 23.75C64.7242 22.97 64.5142 22.07 64.5142 21.05C64.5142 20.042 64.7302 19.154 65.1622 18.386C65.6062 17.606 66.2062 17.012 66.9622 16.604C67.7182 16.184 68.5642 15.974 69.5002 15.974C70.4362 15.974 71.2822 16.184 72.0382 16.604C72.7942 17.012 73.3882 17.6 73.8202 18.368C74.2642 19.136 74.4862 20.03 74.4862 21.05C74.4862 22.07 74.2582 22.97 73.8022 23.75C73.3582 24.518 72.7522 25.112 71.9842 25.532C71.2162 25.952 70.3642 26.162 69.4282 26.162ZM69.4282 24.722C70.0162 24.722 70.5682 24.584 71.0842 24.308C71.6002 24.032 72.0142 23.618 72.3262 23.066C72.6502 22.514 72.8122 21.842 72.8122 21.05C72.8122 20.258 72.6562 19.586 72.3442 19.034C72.0322 18.482 71.6242 18.074 71.1202 17.81C70.6162 17.534 70.0702 17.396 69.4822 17.396C68.8822 17.396 68.3302 17.534 67.8262 17.81C67.3342 18.074 66.9382 18.482 66.6382 19.034C66.3382 19.586 66.1882 20.258 66.1882 21.05C66.1882 21.854 66.3322 22.532 66.6202 23.084C66.9202 23.636 67.3162 24.05 67.8082 24.326C68.3002 24.59 68.8402 24.722 69.4282 24.722ZM76.0279 21.032C76.0279 20.024 76.2319 19.142 76.6399 18.386C77.0479 17.618 77.6059 17.024 78.3139 16.604C79.0339 16.184 79.8319 15.974 80.7079 15.974C81.5719 15.974 82.3219 16.16 82.9579 16.532C83.5939 16.904 84.0679 17.372 84.3799 17.936V16.136H86.0359V26H84.3799V24.164C84.0559 24.74 83.5699 25.22 82.9219 25.604C82.2859 25.976 81.5419 26.162 80.6899 26.162C79.8139 26.162 79.0219 25.946 78.3139 25.514C77.6059 25.082 77.0479 24.476 76.6399 23.696C76.2319 22.916 76.0279 22.028 76.0279 21.032ZM84.3799 21.05C84.3799 20.306 84.2299 19.658 83.9299 19.106C83.6299 18.554 83.2219 18.134 82.7059 17.846C82.2019 17.546 81.6439 17.396 81.0319 17.396C80.4199 17.396 79.8619 17.54 79.3579 17.828C78.8539 18.116 78.4519 18.536 78.1519 19.088C77.8519 19.64 77.7019 20.288 77.7019 21.032C77.7019 21.788 77.8519 22.448 78.1519 23.012C78.4519 23.564 78.8539 23.99 79.3579 24.29C79.8619 24.578 80.4199 24.722 81.0319 24.722C81.6439 24.722 82.2019 24.578 82.7059 24.29C83.2219 23.99 83.6299 23.564 83.9299 23.012C84.2299 22.448 84.3799 21.794 84.3799 21.05ZM88.192 21.032C88.192 20.024 88.396 19.142 88.804 18.386C89.212 17.618 89.77 17.024 90.478 16.604C91.198 16.184 92.002 15.974 92.89 15.974C93.658 15.974 94.372 16.154 95.032 16.514C95.692 16.862 96.196 17.324 96.544 17.9V12.68H98.2V26H96.544V24.146C96.22 24.734 95.74 25.22 95.104 25.604C94.468 25.976 93.724 26.162 92.872 26.162C91.996 26.162 91.198 25.946 90.478 25.514C89.77 25.082 89.212 24.476 88.804 23.696C88.396 22.916 88.192 22.028 88.192 21.032ZM96.544 21.05C96.544 20.306 96.394 19.658 96.094 19.106C95.794 18.554 95.386 18.134 94.87 17.846C94.366 17.546 93.808 17.396 93.196 17.396C92.584 17.396 92.026 17.54 91.522 17.828C91.018 18.116 90.616 18.536 90.316 19.088C90.016 19.64 89.866 20.288 89.866 21.032C89.866 21.788 90.016 22.448 90.316 23.012C90.616 23.564 91.018 23.99 91.522 24.29C92.026 24.578 92.584 24.722 93.196 24.722C93.808 24.722 94.366 24.578 94.87 24.29C95.386 23.99 95.794 23.564 96.094 23.012C96.394 22.448 96.544 21.794 96.544 21.05ZM109.673 13.454C111.041 13.454 112.223 13.712 113.219 14.228C114.227 14.732 114.995 15.458 115.523 16.406C116.063 17.354 116.333 18.47 116.333 19.754C116.333 21.038 116.063 22.154 115.523 23.102C114.995 24.038 114.227 24.758 113.219 25.262C112.223 25.754 111.041 26 109.673 26H105.767V13.454H109.673ZM109.673 24.65C111.293 24.65 112.529 24.224 113.381 23.372C114.233 22.508 114.659 21.302 114.659 19.754C114.659 18.194 114.227 16.976 113.363 16.1C112.511 15.224 111.281 14.786 109.673 14.786H107.405V24.65H109.673ZM122.795 26.162C121.871 26.162 121.031 25.952 120.275 25.532C119.531 25.112 118.943 24.518 118.511 23.75C118.091 22.97 117.881 22.07 117.881 21.05C117.881 20.042 118.097 19.154 118.529 18.386C118.973 17.606 119.573 17.012 120.329 16.604C121.085 16.184 121.931 15.974 122.867 15.974C123.803 15.974 124.649 16.184 125.405 16.604C126.161 17.012 126.755 17.6 127.187 18.368C127.631 19.136 127.853 20.03 127.853 21.05C127.853 22.07 127.625 22.97 127.169 23.75C126.725 24.518 126.119 25.112 125.351 25.532C124.583 25.952 123.731 26.162 122.795 26.162ZM122.795 24.722C123.383 24.722 123.935 24.584 124.451 24.308C124.967 24.032 125.381 23.618 125.693 23.066C126.017 22.514 126.179 21.842 126.179 21.05C126.179 20.258 126.023 19.586 125.711 19.034C125.399 18.482 124.991 18.074 124.487 17.81C123.983 17.534 123.437 17.396 122.849 17.396C122.249 17.396 121.697 17.534 121.193 17.81C120.701 18.074 120.305 18.482 120.005 19.034C119.705 19.586 119.555 20.258 119.555 21.05C119.555 21.854 119.699 22.532 119.987 23.084C120.287 23.636 120.683 24.05 121.175 24.326C121.667 24.59 122.207 24.722 122.795 24.722ZM129.395 21.05C129.395 20.03 129.599 19.142 130.007 18.386C130.415 17.618 130.979 17.024 131.699 16.604C132.431 16.184 133.265 15.974 134.201 15.974C135.413 15.974 136.409 16.268 137.189 16.856C137.981 17.444 138.503 18.26 138.755 19.304H136.991C136.823 18.704 136.493 18.23 136.001 17.882C135.521 17.534 134.921 17.36 134.201 17.36C133.265 17.36 132.509 17.684 131.933 18.332C131.357 18.968 131.069 19.874 131.069 21.05C131.069 22.238 131.357 23.156 131.933 23.804C132.509 24.452 133.265 24.776 134.201 24.776C134.921 24.776 135.521 24.608 136.001 24.272C136.481 23.936 136.811 23.456 136.991 22.832H138.755C138.491 23.84 137.963 24.65 137.171 25.262C136.379 25.862 135.389 26.162 134.201 26.162C133.265 26.162 132.431 25.952 131.699 25.532C130.979 25.112 130.415 24.518 130.007 23.75C129.599 22.982 129.395 22.082 129.395 21.05ZM149.689 16.136V26H148.051V24.542C147.739 25.046 147.301 25.442 146.737 25.73C146.185 26.006 145.573 26.144 144.901 26.144C144.133 26.144 143.443 25.988 142.831 25.676C142.219 25.352 141.733 24.872 141.373 24.236C141.025 23.6 140.851 22.826 140.851 21.914V16.136H142.471V21.698C142.471 22.67 142.717 23.42 143.209 23.948C143.701 24.464 144.373 24.722 145.225 24.722C146.101 24.722 146.791 24.452 147.295 23.912C147.799 23.372 148.051 22.586 148.051 21.554V16.136H149.689ZM164.316 15.956C165.084 15.956 165.768 16.118 166.368 16.442C166.968 16.754 167.442 17.228 167.79 17.864C168.138 18.5 168.312 19.274 168.312 20.186V26H166.692V20.42C166.692 19.436 166.446 18.686 165.954 18.17C165.474 17.642 164.82 17.378 163.992 17.378C163.14 17.378 162.462 17.654 161.958 18.206C161.454 18.746 161.202 19.532 161.202 20.564V26H159.582V20.42C159.582 19.436 159.336 18.686 158.844 18.17C158.364 17.642 157.71 17.378 156.882 17.378C156.03 17.378 155.352 17.654 154.848 18.206C154.344 18.746 154.092 19.532 154.092 20.564V26H152.454V16.136H154.092V17.558C154.416 17.042 154.848 16.646 155.388 16.37C155.94 16.094 156.546 15.956 157.206 15.956C158.034 15.956 158.766 16.142 159.402 16.514C160.038 16.886 160.512 17.432 160.824 18.152C161.1 17.456 161.556 16.916 162.192 16.532C162.828 16.148 163.536 15.956 164.316 15.956ZM179.999 20.69C179.999 21.002 179.981 21.332 179.945 21.68H172.061C172.121 22.652 172.451 23.414 173.051 23.966C173.663 24.506 174.401 24.776 175.265 24.776C175.973 24.776 176.561 24.614 177.029 24.29C177.509 23.954 177.845 23.51 178.037 22.958H179.801C179.537 23.906 179.009 24.68 178.217 25.28C177.425 25.868 176.441 26.162 175.265 26.162C174.329 26.162 173.489 25.952 172.745 25.532C172.013 25.112 171.437 24.518 171.017 23.75C170.597 22.97 170.387 22.07 170.387 21.05C170.387 20.03 170.591 19.136 170.999 18.368C171.407 17.6 171.977 17.012 172.709 16.604C173.453 16.184 174.305 15.974 175.265 15.974C176.201 15.974 177.029 16.178 177.749 16.586C178.469 16.994 179.021 17.558 179.405 18.278C179.801 18.986 179.999 19.79 179.999 20.69ZM178.307 20.348C178.307 19.724 178.169 19.19 177.893 18.746C177.617 18.29 177.239 17.948 176.759 17.72C176.291 17.48 175.769 17.36 175.193 17.36C174.365 17.36 173.657 17.624 173.069 18.152C172.493 18.68 172.163 19.412 172.079 20.348H178.307ZM186.967 15.956C188.167 15.956 189.139 16.322 189.883 17.054C190.627 17.774 190.999 18.818 190.999 20.186V26H189.379V20.42C189.379 19.436 189.133 18.686 188.641 18.17C188.149 17.642 187.477 17.378 186.625 17.378C185.761 17.378 185.071 17.648 184.555 18.188C184.051 18.728 183.799 19.514 183.799 20.546V26H182.161V16.136H183.799V17.54C184.123 17.036 184.561 16.646 185.113 16.37C185.677 16.094 186.295 15.956 186.967 15.956ZM195.673 17.486V23.3C195.673 23.78 195.775 24.122 195.979 24.326C196.183 24.518 196.537 24.614 197.041 24.614H198.247V26H196.771C195.859 26 195.175 25.79 194.719 25.37C194.263 24.95 194.035 24.26 194.035 23.3V17.486H192.757V16.136H194.035V13.652H195.673V16.136H198.247V17.486H195.673Z" fill="white"/>
</svg>
