<svg width="41" height="41" viewBox="0 0 41 41" fill="none" xmlns="http://www.w3.org/2000/svg">
<path d="M36.6133 0.745117H12.6146C10.4147 0.745117 8.6148 2.54512 8.6148 4.74512V28.7451C8.6148 30.9451 10.4147 32.7451 12.6146 32.7451H36.6133C38.8132 32.7451 40.6131 30.9451 40.6131 28.7451V4.74512C40.6131 2.54512 38.8132 0.745117 36.6133 0.745117ZM19.6142 15.7451C19.6142 17.4051 18.2743 18.7451 16.6144 18.7451H14.6145V22.7451H11.6146V10.7451H16.6144C18.2743 10.7451 19.6142 12.0851 19.6142 13.7451V15.7451ZM29.6137 19.7451C29.6137 21.4051 28.2737 22.7451 26.6138 22.7451H21.6141V10.7451H26.6138C28.2737 10.7451 29.6137 12.0851 29.6137 13.7451V19.7451ZM37.6132 13.7451H34.6134V15.7451H37.6132V18.7451H34.6134V22.7451H31.6135V10.7451H37.6132V13.7451ZM14.6145 15.7451H16.6144V13.7451H14.6145V15.7451ZM4.61502 8.74512H0.615234V36.7451C0.615234 38.9451 2.41514 40.7451 4.61502 40.7451H32.6135V36.7451H4.61502V8.74512ZM24.6139 19.7451H26.6138V13.7451H24.6139V19.7451Z" fill="black"/>
</svg>
