<svg width="32" height="32" viewBox="0 0 32 32" fill="none" xmlns="http://www.w3.org/2000/svg">
<path d="M11.533 30L8.99967 25.6667L3.96634 24.6333L4.53301 19.7333L1.33301 16L4.53301 12.3L3.96634 7.4L8.99967 6.36667L11.533 2L15.9997 4.06667L20.4663 2L23.033 6.36667L28.033 7.4L27.4663 12.3L30.6663 16L27.4663 19.7333L28.033 24.6333L23.033 25.6667L20.4663 30L15.9997 27.9333L11.533 30ZM12.433 27.3667L15.9997 25.8667L19.6663 27.3667L21.8997 24.0333L25.7997 23.0333L25.3997 19.0667L28.0997 16L25.3997 12.8667L25.7997 8.9L21.8997 7.96667L19.5997 4.63333L15.9997 6.13333L12.333 4.63333L10.0997 7.96667L6.19967 8.9L6.59967 12.8667L3.89967 16L6.59967 19.0667L6.19967 23.1L10.0997 24.0333L12.433 27.3667ZM14.5663 20.4333L22.133 12.9333L20.633 11.5667L14.5663 17.5667L11.3997 14.2667L9.86634 15.7667L14.5663 20.4333Z" fill="white"/>
</svg>
